<svg width="370.688720703125px" height="122.021240234375px" xmlns="http://www.w3.org/2000/svg" viewBox="64.6556396484375 13.9893798828125 370.688720703125 122.021240234375" style="background:#f2eddb" preserveAspectRatio="xMidYMid"><defs><filter id="editing-vintage" x="-100%" y="-100%" width="300%" height="300%"><feConvolveMatrix in="SourceGraphic" result="extrude" order="9,9" divisor="1" kernelMatrix="1,0,0,0,0,0,0,0,0,0,1,0,0,0,0,0,0,0,0,0,1,0,0,0,0,0,0,0,0,0,1,0,0,0,0,0,0,0,0,0,1,0,0,0,0,0,0,0,0,0,1,0,0,0,0,0,0,0,0,0,1,0,0,0,0,0,0,0,0,0,1,0,0,0,0,0,0,0,0,0,1"> </feConvolveMatrix><feFlood flood-color="#900" result="flood-extrude"></feFlood><feComposite operator="in" in="flood-extrude" in2="extrude" result="extrude-color"></feComposite><feOffset dx="5" dy="5" in="extrude-color" result="extrude-offset"></feOffset><feColorMatrix in="SourceGraphic" result="stroke" type="matrix" values="0 0 0 0 0 0 0 0 0 0 0 0 0 0 0 0 1 0 0 0 "></feColorMatrix><feColorMatrix in="SourceGraphic" result="fill" type="matrix" values="0 0 0 0 0 0 0 0 0 0 0 0 0 0 0 1 0 0 1 0 "></feColorMatrix><feConvolveMatrix in="stroke" result="inner-shadow" order="5,5" divisor="1" kernelMatrix="1 0 0 0 0 0 1 0 0 0 0 0 1 0 0 0 0 0 1 0 0 0 0 0 1 "></feConvolveMatrix><feOffset dx="1" dy="1" in="inner-shadow" result="offset"></feOffset><feComposite operator="in" in="offset" in2="SourceAlpha" result="comp"></feComposite><feFlood flood-color="#000" result="flood3"></feFlood><feComposite operator="in" in="flood3" in2="comp" result="comp2"></feComposite><feColorMatrix in="comp2" result="comp3" type="matrix" values="1 0 0 0 0 0 1 0 0 0 0 0 1 0 0 0 0 0 0.5 0 "></feColorMatrix><feFlood flood-color="#f00" result="flood1"></feFlood><feComposite operator="in" in="flood1" in2="fill" result="fill2"></feComposite><feFlood flood-color="#fff" result="flood2"></feFlood><feComposite operator="in" in="flood2" in2="stroke" result="stroke2"></feComposite><feMerge result="obj"><feMergeNode in="extrude-offset"></feMergeNode><feMergeNode in="fill2"></feMergeNode><feMergeNode in="comp3"></feMergeNode></feMerge><feConvolveMatrix in="SourceAlpha" result="shadow" order="9,9" divisor="1" kernelMatrix="1,0,0,0,0,0,0,0,0,0,1,0,0,0,0,0,0,0,0,0,1,0,0,0,0,0,0,0,0,0,1,0,0,0,0,0,0,0,0,0,1,0,0,0,0,0,0,0,0,0,1,0,0,0,0,0,0,0,0,0,1,0,0,0,0,0,0,0,0,0,1,0,0,0,0,0,0,0,0,0,1"></feConvolveMatrix><feOffset dx="15" dy="15" in="shadow" result="shadow-offset"></feOffset><feFlood flood-color="#444" result="flood-shadow"></feFlood><feComposite operator="in" in="flood-shadow" in2="shadow-offset" result="shadow-color"></feComposite><feMerge><feMergeNode in="shadow-color"></feMergeNode><feMergeNode in="obj"></feMergeNode></feMerge></filter></defs><g transform="translate(-9,-9)"><g filter="url(#editing-vintage)"><g transform="translate(122.66719540953636, 96.97718620300293)"><path d="M14.34 0L0.38 0L8.51-42.24L22.59-42.24L14.34 0ZM51.07 1.28L51.07 1.28L51.07 1.28Q43.33 1.28 43.33-4.74L43.33-4.74L43.33-4.74Q43.39-6.40 43.90-9.22L43.90-9.22L45.06-15.10L45.06-15.10Q46.78-23.42 46.78-25.28L46.78-25.28L46.78-25.28Q46.78-28.99 44.61-28.99L44.61-28.99L44.61-28.99Q40.96-28.99 39.04-19.46L39.04-19.46L35.26 0L22.40 1.28L29.06-32.70L39.55-33.92L38.53-27.65L38.53-27.65Q41.54-33.92 50.75-33.92L50.75-33.92L50.75-33.92Q55.23-33.92 57.12-32.03L57.12-32.03L57.12-32.03Q59.01-30.14 59.01-25.92L59.01-25.92L59.01-25.92Q59.01-21.95 56.96-12.67L56.96-12.67L56.96-12.67Q56-8.51 56-6.94L56-6.94L56-6.94Q56-5.38 56.86-4.48L56.86-4.48L56.86-4.48Q57.73-3.58 59.01-3.46L59.01-3.46L59.01-3.46Q58.37-1.28 56.16 0L56.16 0L56.16 0Q53.95 1.28 51.07 1.28ZM83.26-22.46L83.26-22.46L83.26-22.46Q84.16-24.83 84.16-26.88L84.16-26.88L84.16-26.88Q84.16-30.66 81.09-30.66L81.09-30.66L81.09-30.66Q79.49-30.66 78.18-29.22L78.18-29.22L78.18-29.22Q76.86-27.78 76.86-25.98L76.86-25.98L76.86-25.98Q76.86-24.70 77.89-23.68L77.89-23.68L77.89-23.68Q79.36-22.27 83.14-19.97L83.14-19.97L83.14-19.97Q86.91-17.66 88.35-15.78L88.35-15.78L88.35-15.78Q89.79-13.89 89.79-11.30L89.79-11.30L89.79-11.30Q89.79-8.70 88.54-6.34L88.54-6.34L88.54-6.34Q87.30-3.97 85.06-2.30L85.06-2.30L85.06-2.30Q80.26 1.28 72.58 1.28L72.58 1.28L72.58 1.28Q68.42 1.28 65.22-0.90L65.22-0.90L65.22-0.90Q62.02-3.01 62.02-5.50L62.02-5.50L62.02-5.50Q62.02-8 63.84-9.47L63.84-9.47L63.84-9.47Q65.66-10.94 68.35-10.94L68.35-10.94L68.35-10.94Q71.04-10.94 72.70-9.92L72.70-9.92L72.70-9.92Q71.87-7.81 71.87-6.40L71.87-6.40L71.87-6.40Q71.87-2.18 75.46-2.18L75.46-2.18L75.46-2.18Q76.99-2.18 78.02-3.14L78.02-3.14L78.02-3.14Q79.04-4.10 79.04-5.76L79.04-5.76L79.04-5.76Q79.04-9.02 73.54-12.48L73.54-12.48L73.54-12.48Q69.06-15.42 68.03-16.58L68.03-16.58L68.03-16.58Q66.30-18.62 66.30-21.18L66.30-21.18L66.30-21.18Q66.30-23.74 67.52-26.18L67.52-26.18L67.52-26.18Q68.74-28.61 70.98-30.34L70.98-30.34L70.98-30.34Q75.65-33.92 83.78-33.92L83.78-33.92L83.78-33.92Q87.94-33.92 90.40-32.26L90.40-32.26L90.40-32.26Q92.86-30.59 92.86-27.78L92.86-27.78L92.86-27.78Q92.86-24.96 91.17-23.36L91.17-23.36L91.17-23.36Q89.47-21.76 86.40-21.76L86.40-21.76L86.40-21.76Q84.29-21.76 83.26-22.46ZM96.26-6.40L96.26-6.40L96.26-6.40Q96.26-8.13 97.15-12.48L97.15-12.48L100.54-29.76L96.77-29.76L97.02-31.68L97.02-31.68Q104.70-33.98 112.13-39.62L112.13-39.62L115.20-39.62L113.66-32.64L118.66-32.64L118.08-29.76L113.15-29.76L109.89-12.48L109.89-12.48Q109.06-8.51 109.06-7.17L109.06-7.17L109.06-7.17Q109.06-4.10 111.74-3.46L111.74-3.46L111.74-3.46Q111.10-1.28 108.80 0L108.80 0L108.80 0Q106.50 1.28 103.23 1.28L103.23 1.28L103.23 1.28Q99.97 1.28 98.11-0.77L98.11-0.77L98.11-0.77Q96.26-2.82 96.26-6.40ZM120.86-1.92L120.86-1.92L120.86-1.92Q119.36-3.58 118.69-6.21L118.69-6.21L118.69-6.21Q118.02-8.83 118.02-13.12L118.02-13.12L118.02-13.12Q118.02-17.41 119.49-21.31L119.49-21.31L119.49-21.31Q120.96-25.22 123.65-28.03L123.65-28.03L123.65-28.03Q129.15-33.92 138.24-33.92L138.24-33.92L138.24-33.92Q141.50-33.92 143.87-32.83L143.87-32.83L154.82-33.92L150.08-8.96L150.08-8.96Q149.89-8.19 149.89-6.78L149.89-6.78L149.89-6.78Q149.89-5.38 150.75-4.48L150.75-4.48L150.75-4.48Q151.62-3.58 152.90-3.46L152.90-3.46L152.90-3.46Q152.26-1.28 149.92 0L149.92 0L149.92 0Q147.58 1.28 144.96 1.28L144.96 1.28L144.96 1.28Q142.34 1.28 140.58 0.29L140.58 0.29L140.58 0.29Q138.82-0.70 138.30-2.37L138.30-2.37L138.30-2.37Q137.28-0.77 135.10 0.26L135.10 0.26L135.10 0.26Q132.93 1.28 130.02 1.28L130.02 1.28L130.02 1.28Q127.10 1.28 124.74 0.51L124.74 0.51L124.74 0.51Q122.37-0.26 120.86-1.92ZM134.37-27.90L134.37-27.90L134.37-27.90Q133.63-26.75 132.99-24.80L132.99-24.80L132.99-24.80Q132.35-22.85 131.30-17.63L131.30-17.63L131.30-17.63Q130.24-12.42 130.24-8.70L130.24-8.70L130.24-8.70Q130.24-4.99 130.82-3.90L130.82-3.90L130.82-3.90Q131.39-2.82 132.42-2.82L132.42-2.82L132.42-2.82Q134.46-2.82 135.97-4.77L135.97-4.77L135.97-4.77Q137.47-6.72 138.05-10.18L138.05-10.18L141.44-28.93L141.44-28.93Q140.10-30.08 138.53-30.08L138.53-30.08L138.53-30.08Q136.96-30.08 136.03-29.57L136.03-29.57L136.03-29.57Q135.10-29.06 134.37-27.90ZM183.30-42.69L183.30-42.69L183.30-42.69Q198.98-42.69 198.98-31.62L198.98-31.62L198.98-31.62Q198.98-25.54 195.07-21.89L195.07-21.89L195.07-21.89Q191.23-18.24 184.51-18.24L184.51-18.24L184.51-18.24Q181.38-18.24 178.94-20.03L178.94-20.03L178.94-20.03Q177.79-20.80 177.02-21.82L177.02-21.82L177.02-21.82Q181.70-21.82 184.16-24.67L184.16-24.67L184.16-24.67Q186.62-27.52 186.62-33.09L186.62-33.09L186.62-33.09Q186.62-38.66 181.12-38.66L181.12-38.66L179.58-38.66L179.58-38.66Q179.20-38.66 178.88-38.59L178.88-38.59L171.52 0L157.63 0L165.50-41.92L165.50-41.92Q172.35-42.56 176.32-42.62L176.32-42.62L176.32-42.62Q180.29-42.69 183.30-42.69ZM225.22-10.82L225.22-10.82L225.22-10.82Q226.82-9.73 226.82-7.33L226.82-7.33L226.82-7.33Q226.82-4.93 225.60-3.39L225.60-3.39L225.60-3.39Q224.38-1.86 222.40-0.83L222.40-0.83L222.40-0.83Q218.30 1.28 213.89 1.28L213.89 1.28L213.89 1.28Q209.47 1.28 206.88 0.32L206.88 0.32L206.88 0.32Q204.29-0.64 202.56-2.43L202.56-2.43L202.56-2.43Q199.17-5.82 199.17-12.03L199.17-12.03L199.17-12.03Q199.17-21.70 204.42-27.58L204.42-27.58L204.42-27.58Q210.05-33.92 219.84-33.92L219.84-33.92L219.84-33.92Q225.92-33.92 228.93-31.36L228.93-31.36L228.93-31.36Q231.17-29.44 231.17-26.30L231.17-26.30L231.17-26.30Q231.17-15.04 211.71-15.04L211.71-15.04L211.71-15.04Q211.46-13.38 211.46-11.97L211.46-11.97L211.46-11.97Q211.46-9.02 212.77-7.90L212.77-7.90L212.77-7.90Q214.08-6.78 216.51-6.78L216.51-6.78L216.51-6.78Q218.94-6.78 221.54-7.90L221.54-7.90L221.54-7.90Q224.13-9.02 225.22-10.82ZM212.16-17.79L212.16-17.79L212.16-17.79Q216.70-17.79 219.33-20.61L219.33-20.61L219.33-20.61Q221.95-23.30 221.95-27.58L221.95-27.58L221.95-27.58Q221.95-29.06 221.41-29.86L221.41-29.86L221.41-29.86Q220.86-30.66 219.78-30.66L219.78-30.66L219.78-30.66Q218.69-30.66 217.76-30.24L217.76-30.24L217.76-30.24Q216.83-29.82 215.87-28.42L215.87-28.42L215.87-28.42Q213.50-25.22 212.16-17.79ZM234.37-6.40L234.37-6.40L234.37-6.40Q234.37-8.13 235.26-12.48L235.26-12.48L238.66-29.76L234.88-29.76L235.14-31.68L235.14-31.68Q242.82-33.98 250.24-39.62L250.24-39.62L253.31-39.62L251.78-32.64L256.77-32.64L256.19-29.76L251.26-29.76L248-12.48L248-12.48Q247.17-8.51 247.17-7.17L247.17-7.17L247.17-7.17Q247.17-4.10 249.86-3.46L249.86-3.46L249.86-3.46Q249.22-1.28 246.91 0L246.91 0L246.91 0Q244.61 1.28 241.34 1.28L241.34 1.28L241.34 1.28Q238.08 1.28 236.22-0.77L236.22-0.77L236.22-0.77Q234.37-2.82 234.37-6.40Z" fill="#f00" stroke="#0f0" stroke-width="1.8"></path></g></g><g><g transform="translate(122.37813290953636, 96.98499870300293)"><path d="M14.34 0L0.38 0L8.51-42.24L22.59-42.24L14.34 0ZM51.07 1.28L51.07 1.28L51.07 1.28Q43.33 1.28 43.33-4.74L43.33-4.74L43.33-4.74Q43.39-6.40 43.90-9.22L43.90-9.22L45.06-15.10L45.06-15.10Q46.78-23.42 46.78-25.28L46.78-25.28L46.78-25.28Q46.78-28.99 44.61-28.99L44.61-28.99L44.61-28.99Q40.96-28.99 39.04-19.46L39.04-19.46L35.26 0L22.40 1.28L29.06-32.70L39.55-33.92L38.53-27.65L38.53-27.65Q41.54-33.92 50.75-33.92L50.75-33.92L50.75-33.92Q55.23-33.92 57.12-32.03L57.12-32.03L57.12-32.03Q59.01-30.14 59.01-25.92L59.01-25.92L59.01-25.92Q59.01-21.95 56.96-12.67L56.96-12.67L56.96-12.67Q56-8.51 56-6.94L56-6.94L56-6.94Q56-5.38 56.86-4.48L56.86-4.48L56.86-4.48Q57.73-3.58 59.01-3.46L59.01-3.46L59.01-3.46Q58.37-1.28 56.16 0L56.16 0L56.16 0Q53.95 1.28 51.07 1.28ZM83.26-22.46L83.26-22.46L83.26-22.46Q84.16-24.83 84.16-26.88L84.16-26.88L84.16-26.88Q84.16-30.66 81.09-30.66L81.09-30.66L81.09-30.66Q79.49-30.66 78.18-29.22L78.18-29.22L78.18-29.22Q76.86-27.78 76.86-25.98L76.86-25.98L76.86-25.98Q76.86-24.70 77.89-23.68L77.89-23.68L77.89-23.68Q79.36-22.27 83.14-19.97L83.14-19.97L83.14-19.97Q86.91-17.66 88.35-15.78L88.35-15.78L88.35-15.78Q89.79-13.89 89.79-11.30L89.79-11.30L89.79-11.30Q89.79-8.70 88.54-6.34L88.54-6.34L88.54-6.34Q87.30-3.97 85.06-2.30L85.06-2.30L85.06-2.30Q80.26 1.28 72.58 1.28L72.58 1.28L72.58 1.28Q68.42 1.28 65.22-0.90L65.22-0.90L65.22-0.90Q62.02-3.01 62.02-5.50L62.02-5.50L62.02-5.50Q62.02-8 63.84-9.47L63.84-9.47L63.84-9.47Q65.66-10.94 68.35-10.94L68.35-10.94L68.35-10.94Q71.04-10.94 72.70-9.92L72.70-9.92L72.70-9.92Q71.87-7.81 71.87-6.40L71.87-6.40L71.87-6.40Q71.87-2.18 75.46-2.18L75.46-2.18L75.46-2.18Q76.99-2.18 78.02-3.14L78.02-3.14L78.02-3.14Q79.04-4.10 79.04-5.76L79.04-5.76L79.04-5.76Q79.04-9.02 73.54-12.48L73.54-12.48L73.54-12.48Q69.06-15.42 68.03-16.58L68.03-16.58L68.03-16.58Q66.30-18.62 66.30-21.18L66.30-21.18L66.30-21.18Q66.30-23.74 67.52-26.18L67.52-26.18L67.52-26.18Q68.74-28.61 70.98-30.34L70.98-30.34L70.98-30.34Q75.65-33.92 83.78-33.92L83.78-33.92L83.78-33.92Q87.94-33.92 90.40-32.26L90.40-32.26L90.40-32.26Q92.86-30.59 92.86-27.78L92.86-27.78L92.86-27.78Q92.86-24.96 91.17-23.36L91.17-23.36L91.17-23.36Q89.47-21.76 86.40-21.76L86.40-21.76L86.40-21.76Q84.29-21.76 83.26-22.46ZM96.26-6.40L96.26-6.40L96.26-6.40Q96.26-8.13 97.15-12.48L97.15-12.48L100.54-29.76L96.77-29.76L97.02-31.68L97.02-31.68Q104.70-33.98 112.13-39.62L112.13-39.62L115.20-39.62L113.66-32.64L118.66-32.64L118.08-29.76L113.15-29.76L109.89-12.48L109.89-12.48Q109.06-8.51 109.06-7.17L109.06-7.17L109.06-7.17Q109.06-4.10 111.74-3.46L111.74-3.46L111.74-3.46Q111.10-1.28 108.80 0L108.80 0L108.80 0Q106.50 1.28 103.23 1.28L103.23 1.28L103.23 1.28Q99.97 1.28 98.11-0.77L98.11-0.77L98.11-0.77Q96.26-2.82 96.26-6.40ZM120.86-1.92L120.86-1.92L120.86-1.92Q119.36-3.58 118.69-6.21L118.69-6.21L118.69-6.21Q118.02-8.83 118.02-13.12L118.02-13.12L118.02-13.12Q118.02-17.41 119.49-21.31L119.49-21.31L119.49-21.31Q120.96-25.22 123.65-28.03L123.65-28.03L123.65-28.03Q129.15-33.92 138.24-33.92L138.24-33.92L138.24-33.92Q141.50-33.92 143.87-32.83L143.87-32.83L154.82-33.92L150.08-8.96L150.08-8.96Q149.89-8.19 149.89-6.78L149.89-6.78L149.89-6.78Q149.89-5.38 150.75-4.48L150.75-4.48L150.75-4.48Q151.62-3.58 152.90-3.46L152.90-3.46L152.90-3.46Q152.26-1.28 149.92 0L149.92 0L149.92 0Q147.58 1.28 144.96 1.28L144.96 1.28L144.96 1.28Q142.34 1.28 140.58 0.29L140.58 0.29L140.58 0.29Q138.82-0.70 138.30-2.37L138.30-2.37L138.30-2.37Q137.28-0.77 135.10 0.26L135.10 0.26L135.10 0.26Q132.93 1.28 130.02 1.28L130.02 1.28L130.02 1.28Q127.10 1.28 124.74 0.51L124.74 0.51L124.74 0.51Q122.37-0.26 120.86-1.92ZM134.37-27.90L134.37-27.90L134.37-27.90Q133.63-26.75 132.99-24.80L132.99-24.80L132.99-24.80Q132.35-22.85 131.30-17.63L131.30-17.63L131.30-17.63Q130.24-12.42 130.24-8.70L130.24-8.70L130.24-8.70Q130.24-4.99 130.82-3.90L130.82-3.90L130.82-3.90Q131.39-2.82 132.42-2.82L132.42-2.82L132.42-2.82Q134.46-2.82 135.97-4.77L135.97-4.77L135.97-4.77Q137.47-6.72 138.05-10.18L138.05-10.18L141.44-28.93L141.44-28.93Q140.10-30.08 138.53-30.08L138.53-30.08L138.53-30.08Q136.96-30.08 136.03-29.57L136.03-29.57L136.03-29.57Q135.10-29.06 134.37-27.90ZM183.30-42.69L183.30-42.69L183.30-42.69Q198.98-42.69 198.98-31.62L198.98-31.62L198.98-31.62Q198.98-25.54 195.07-21.89L195.07-21.89L195.07-21.89Q191.23-18.24 184.51-18.24L184.51-18.24L184.51-18.24Q181.38-18.24 178.94-20.03L178.94-20.03L178.94-20.03Q177.79-20.80 177.02-21.82L177.02-21.82L177.02-21.82Q181.70-21.82 184.16-24.67L184.16-24.67L184.16-24.67Q186.62-27.52 186.62-33.09L186.62-33.09L186.62-33.09Q186.62-38.66 181.12-38.66L181.12-38.66L179.58-38.66L179.58-38.66Q179.20-38.66 178.88-38.59L178.88-38.59L171.52 0L157.63 0L165.50-41.92L165.50-41.92Q172.35-42.56 176.32-42.62L176.32-42.62L176.32-42.62Q180.29-42.69 183.30-42.69ZM225.22-10.82L225.22-10.82L225.22-10.82Q226.82-9.73 226.82-7.33L226.82-7.33L226.82-7.33Q226.82-4.93 225.60-3.39L225.60-3.39L225.60-3.39Q224.38-1.86 222.40-0.83L222.40-0.83L222.40-0.83Q218.30 1.28 213.89 1.28L213.89 1.28L213.89 1.28Q209.47 1.28 206.88 0.32L206.88 0.32L206.88 0.32Q204.29-0.64 202.56-2.43L202.56-2.43L202.56-2.43Q199.17-5.82 199.17-12.03L199.17-12.03L199.17-12.03Q199.17-21.70 204.42-27.58L204.42-27.58L204.42-27.58Q210.05-33.92 219.84-33.92L219.84-33.92L219.84-33.92Q225.92-33.92 228.93-31.36L228.93-31.36L228.93-31.36Q231.17-29.44 231.17-26.30L231.17-26.30L231.17-26.30Q231.17-15.04 211.71-15.04L211.71-15.04L211.71-15.04Q211.46-13.38 211.46-11.97L211.46-11.97L211.46-11.97Q211.46-9.02 212.77-7.90L212.77-7.90L212.77-7.90Q214.08-6.78 216.51-6.78L216.51-6.78L216.51-6.78Q218.94-6.78 221.54-7.90L221.54-7.90L221.54-7.90Q224.13-9.02 225.22-10.82ZM212.16-17.79L212.16-17.79L212.16-17.79Q216.70-17.79 219.33-20.61L219.33-20.61L219.33-20.61Q221.95-23.30 221.95-27.58L221.95-27.58L221.95-27.58Q221.95-29.06 221.41-29.86L221.41-29.86L221.41-29.86Q220.86-30.66 219.78-30.66L219.78-30.66L219.78-30.66Q218.69-30.66 217.76-30.24L217.76-30.24L217.76-30.24Q216.83-29.82 215.87-28.42L215.87-28.42L215.87-28.42Q213.50-25.22 212.16-17.79ZM234.37-6.40L234.37-6.40L234.37-6.40Q234.37-8.13 235.26-12.48L235.26-12.48L238.66-29.76L234.88-29.76L235.14-31.68L235.14-31.68Q242.82-33.98 250.24-39.62L250.24-39.62L253.31-39.62L251.78-32.64L256.77-32.64L256.19-29.76L251.26-29.76L248-12.48L248-12.48Q247.17-8.51 247.17-7.17L247.17-7.17L247.17-7.17Q247.17-4.10 249.86-3.46L249.86-3.46L249.86-3.46Q249.22-1.28 246.91 0L246.91 0L246.91 0Q244.61 1.28 241.34 1.28L241.34 1.28L241.34 1.28Q238.08 1.28 236.22-0.77L236.22-0.77L236.22-0.77Q234.37-2.82 234.37-6.40Z" fill="none" stroke="#fff" stroke-width="2.1"></path></g></g></g><style>text {
  font-size: 64px;
  font-family: Arial Black;
  dominant-baseline: central;
  text-anchor: middle;
}</style></svg>